<svg width="54" height="55" viewBox="0 0 54 55" fill="none" xmlns="http://www.w3.org/2000/svg">
<path d="M0.701172 26.9962C0.701172 11.947 12.2717 0.806152 27.2012 0.806152C42.1306 0.806152 53.7012 11.947 53.7012 26.9962C53.7012 42.0453 42.1306 53.1861 27.2012 53.1861C24.518 53.1861 21.9475 52.825 19.5294 52.15C19.0605 52.0171 18.561 52.0528 18.115 52.2513L12.8547 54.6205C12.537 54.7633 12.1898 54.8244 11.8435 54.7984C11.4972 54.7725 11.1625 54.6602 10.8687 54.4716C10.575 54.2829 10.3312 54.0237 10.1588 53.7166C9.98642 53.4094 9.89072 53.0639 9.88011 52.7103L9.73436 47.9076C9.72429 47.6153 9.65596 47.3281 9.53353 47.0636C9.41109 46.799 9.23711 46.5626 9.02217 46.3686C3.86792 41.6707 0.701172 34.8666 0.701172 26.9962ZM19.0723 22.072L11.2879 34.654C10.5426 35.8623 11.9968 37.2224 13.1131 36.3618L21.4772 29.8953C21.7523 29.6824 22.0879 29.5666 22.4334 29.5654C22.7788 29.5641 23.1153 29.6776 23.3918 29.8885L29.5829 34.6203C30.0221 34.9559 30.5249 35.1952 31.0594 35.323C31.594 35.4508 32.1487 35.4644 32.6886 35.3629C33.2286 35.2615 33.7421 35.0471 34.1967 34.7334C34.6513 34.4197 35.0372 34.0135 35.33 33.5403L43.1144 20.9583C43.863 19.75 42.4055 18.3899 41.2892 19.2505L32.9252 25.717C32.6501 25.9299 32.3144 26.0457 31.969 26.0469C31.6235 26.0482 31.2871 25.9347 31.0105 25.7238L24.8195 20.9887C24.3802 20.653 23.8775 20.4138 23.3429 20.2859C22.8084 20.1581 22.2537 20.1445 21.7137 20.246C21.1737 20.3474 20.6603 20.5618 20.2057 20.8755C19.751 21.1892 19.3652 21.5954 19.0723 22.0687V22.072Z" fill="black"/>
</svg>
