<svg width="53" height="38" viewBox="0 0 53 38" fill="none" xmlns="http://www.w3.org/2000/svg">
<path fill-rule="evenodd" clip-rule="evenodd" d="M8.96624 0.821777C4.5213 0.821777 0.917969 4.42511 0.917969 8.87005V29.6067C0.917969 35.8124 0.918366 35.583 0.918617 35.4378C0.918798 35.3338 0.918903 35.2729 0.918734 37.6549L19.1905 32.8058L44.8433 32.7772C49.2882 32.7772 52.8915 29.1738 52.8915 24.7289V8.87006C52.8915 4.42511 49.2882 0.821777 44.8433 0.821777H8.96624ZM12.1907 4.6767C8.54475 4.6767 5.58911 7.38451 5.58911 10.7248V26.3078C5.58911 30.9712 5.58943 30.7989 5.58964 30.6898C5.58979 30.6116 5.58987 30.5659 5.58973 32.3559L20.5771 28.7119L41.6188 28.6904C45.2648 28.6904 48.2204 25.9826 48.2204 22.6423V10.7248C48.2204 7.38451 45.2648 4.6767 41.6188 4.6767H12.1907Z" fill="white"/>
<path d="M5 18L48.5 16.5" stroke="white" stroke-width="30"/>
</svg>
