<svg width="51" height="50" viewBox="0 0 51 50" fill="none" xmlns="http://www.w3.org/2000/svg">
<path d="M25.555 4.16699C15.1573 4.16568 6.29365 11.5586 4.62889 21.621C2.96413 31.6834 8.9898 41.444 18.8549 44.6649C19.9174 44.8524 20.2978 44.2128 20.2978 43.6628C20.2978 43.1691 20.2808 41.8607 20.2744 40.1212C14.3775 41.3712 13.1323 37.3337 13.1323 37.3337C12.7441 36.0773 11.9095 34.9989 10.7799 34.2941C8.86741 33.0045 10.9265 33.0337 10.9265 33.0337C12.288 33.2167 13.4862 34.0075 14.1714 35.1753C14.7514 36.2092 15.7285 36.9732 16.8857 37.2975C18.0428 37.6218 19.2842 37.4795 20.3339 36.9024C20.4326 35.8483 20.9109 34.863 21.6833 34.1232C16.9785 33.6003 12.0315 31.817 12.0315 23.8524C12.0054 21.7924 12.7857 19.8009 14.2118 18.2878C13.5665 16.4947 13.6425 14.5279 14.4243 12.7878C14.4243 12.7878 16.2029 12.2274 20.251 14.9149C23.723 13.9816 27.3871 13.9816 30.859 14.9149C34.9093 12.2253 36.6858 12.7878 36.6858 12.7878C37.4712 14.5271 37.5472 16.4953 36.8983 18.2878C38.3296 19.8008 39.1092 21.7975 39.0743 23.8607C39.0743 31.8462 34.123 33.6003 29.4013 34.1149C30.4198 35.1359 30.9422 36.5365 30.8357 37.9607C30.8357 40.7399 30.8102 42.9816 30.8102 43.6628C30.8102 44.2191 31.1884 44.8649 32.27 44.6607C42.131 41.4344 48.1503 31.6732 46.4821 21.6135C44.8139 11.5538 35.9507 4.16466 25.555 4.16699Z" fill="#000"/>
</svg>
