<svg width="537" height="990" viewBox="0 0 537 990" fill="none" xmlns="http://www.w3.org/2000/svg">
<path d="M461.645 0.27817C370.53 0.228149 281.007 24.2066 202.1 69.7979C123.192 115.389 57.6887 180.982 12.1898 259.965C12.0625 260.186 11.9354 260.407 11.8083 260.628C-0.564902 282.15 0.756878 308.585 13.0596 330.143C26.5245 353.738 51.5921 368.308 78.7518 368.325L322.685 368.477C353.719 368.496 382.404 351.936 397.918 325.044L527.008 101.278C539.228 80.0966 539.167 53.9912 526.85 32.8709C515.7 13.7524 495.966 0.944272 473.846 0.423074C469.772 0.32707 465.703 0.27817 461.645 0.27817Z" fill="#393939"/>
<path d="M78.272 621.835C50.9071 621.841 29.2367 636.765 12.0582 660.28C-5.12024 683.795 0.215598 713.155 6.52297 725.099C50.5047 808.259 111.886 866.708 192.457 915.23C273.028 963.752 365.303 989.373 459.352 989.338H459.703C463.03 989.338 466.376 989.303 469.735 989.235C492.943 988.761 513.515 975.024 524.854 954.759C536.992 933.068 536.834 906.591 524.439 885.051L397.977 665.283C382.488 638.366 353.804 621.779 322.756 621.785L78.272 621.835Z" fill="#393939"/>
<path d="M461.645 0.27817C370.53 0.228149 281.007 24.2066 202.1 69.7979C123.192 115.389 57.6887 180.982 12.1898 259.965C12.0625 260.186 11.9354 260.407 11.8083 260.628C-0.564902 282.15 0.756878 308.585 13.0596 330.143C26.5245 353.738 51.5921 368.308 78.7518 368.325L322.685 368.477C353.719 368.496 382.404 351.936 397.918 325.044L527.008 101.278C539.228 80.0966 539.167 53.9912 526.85 32.8709C515.7 13.7524 495.966 0.944272 473.846 0.423074C469.772 0.32707 465.703 0.27817 461.645 0.27817Z" fill="#393939"/>
</svg>
