<svg width="106" height="106" viewBox="0 0 106 106" fill="none" xmlns="http://www.w3.org/2000/svg">
<path d="M54.4767 1.25294C45.2787 1.24789 36.2417 3.66745 28.2768 8.26786C20.3118 12.8683 13.7003 19.487 9.10844 27.4568C9.0956 27.4791 9.08276 27.5014 9.06994 27.5237C7.82121 29.6953 7.95505 32.3628 9.19734 34.5381C10.557 36.919 13.0878 38.3892 15.8295 38.3909L40.4544 38.4063C43.5873 38.4082 46.4828 36.7372 48.0485 34.0237L61.0766 11.4443C62.3098 9.30707 62.3033 6.67288 61.0596 4.54173C59.9337 2.61256 57.9414 1.32015 55.7084 1.26756C55.297 1.25787 54.8863 1.25294 54.4767 1.25294Z" fill="#1F1F1F"/>
<path d="M15.785 63.9715C13.0225 63.9721 10.4721 65.4525 9.10135 67.8509L8.1936 69.4392C7.51726 70.6227 7.4587 72.0626 8.09561 73.2678C12.5368 81.6591 19.1821 88.6806 27.3165 93.5767C35.4508 98.4728 44.7663 101.058 54.2605 101.055H54.296C54.6319 101.055 54.9696 101.051 55.3087 101.044C57.6515 100.996 59.728 99.6103 60.8724 97.5654C62.0974 95.3767 62.081 92.705 60.8294 90.5315L48.0598 68.3557C46.4957 65.6395 43.5998 63.9658 40.4656 63.9665L15.785 63.9715Z" fill="#1F1F1F"/>
</svg>
