<svg width="138" height="210" viewBox="0 0 138 210" fill="none" xmlns="http://www.w3.org/2000/svg">
<path d="M90.2277 3.20037C72.6009 6.21746 56.0812 13.8246 42.3338 25.2552C28.5863 36.6858 18.0968 51.536 11.9222 68.309C11.905 68.3558 11.8877 68.4027 11.8705 68.4496C10.1928 73.0192 11.3275 78.0832 14.4243 81.8401C17.8136 85.952 23.1471 87.9346 28.4014 87.0356L75.5921 78.9619C81.5959 77.9347 86.5939 73.7819 88.7006 68.0704L106.23 20.5447C107.889 16.0461 107.01 11.0039 103.925 7.33207C101.132 4.00829 96.8888 2.18896 92.5926 2.82307C91.8012 2.93987 91.0125 3.06559 90.2277 3.20037Z" fill="white"/>
<path d="M36.7391 136.036C31.4459 136.946 27.7504 140.55 25.2094 145.664C22.6685 150.779 24.677 156.275 26.2943 158.373C37.5675 172.98 51.3846 182.235 68.5837 188.934C85.7828 195.634 104.484 197.519 122.676 194.388L122.744 194.376C123.387 194.266 124.033 194.148 124.681 194.023C129.154 193.161 132.677 189.823 134.196 185.53C135.823 180.936 134.912 175.825 131.798 172.075L100.027 133.811C96.1355 129.125 90.0354 126.872 84.0298 127.905L36.7391 136.036Z" fill="white"/>
<path d="M90.2277 3.20037C72.6009 6.21746 56.0812 13.8246 42.3338 25.2552C28.5863 36.6858 18.0968 51.536 11.9222 68.309C11.905 68.3558 11.8877 68.4027 11.8705 68.4496C10.1928 73.0192 11.3275 78.0832 14.4243 81.8401C17.8136 85.952 23.1471 87.9346 28.4014 87.0356L75.5921 78.9619C81.5959 77.9347 86.5939 73.7819 88.7006 68.0704L106.23 20.5447C107.889 16.0461 107.01 11.0039 103.925 7.33207C101.132 4.00829 96.8888 2.18896 92.5926 2.82307C91.8012 2.93987 91.0125 3.06559 90.2277 3.20037Z" fill="white"/>
</svg>
