<svg width="53" height="53" viewBox="0 0 53 53" fill="none" xmlns="http://www.w3.org/2000/svg">
<path fill-rule="evenodd" clip-rule="evenodd" d="M52.7031 26.8171C52.7031 41.2591 40.994 52.9683 26.552 52.9683C12.11 52.9683 0.400879 41.2591 0.400879 26.8171C0.400879 12.3752 12.11 0.666016 26.552 0.666016C40.994 0.666016 52.7031 12.3752 52.7031 26.8171ZM27.4891 19.9721C24.9459 21.029 19.8617 23.2192 12.2386 26.5404C11.0008 27.0329 10.3514 27.5145 10.2925 27.9852C10.1923 28.7828 11.1904 29.0967 12.5459 29.5216C12.7311 29.5804 12.9229 29.6393 13.119 29.7047C14.4549 30.1383 16.2506 30.6461 17.1834 30.6657C18.0311 30.6832 18.9769 30.3345 20.0208 29.6197C27.1426 24.81 30.819 22.3802 31.05 22.3279C31.2134 22.2908 31.4401 22.2429 31.5926 22.3802C31.7452 22.5153 31.7299 22.7724 31.7147 22.8422C31.6144 23.2628 27.7048 26.9 25.6781 28.7828C25.0461 29.3691 24.5994 29.7853 24.5079 29.8812C24.303 30.0926 24.0938 30.2952 23.8933 30.4892C22.6511 31.6834 21.7228 32.5813 23.9456 34.0458C25.0134 34.7497 25.8677 35.3315 26.7198 35.9112C27.6504 36.5454 28.5787 37.1773 29.7817 37.9662C30.0868 38.1667 30.3788 38.3738 30.6643 38.5764C31.7474 39.3501 32.7215 40.0431 33.9244 39.9341C34.6218 39.8687 35.3453 39.2128 35.7114 37.2536C36.5766 32.6205 38.2808 22.5872 38.6752 18.451C38.6992 18.1075 38.6846 17.7625 38.6316 17.4224C38.5999 17.1476 38.4662 16.8948 38.2568 16.7141C37.9452 16.4591 37.4614 16.4046 37.2435 16.409C36.2606 16.4264 34.7526 16.9516 27.4891 19.9721Z" fill="black"/>
</svg>
